<mxfile host="drawio-plugin" modified="2024-04-02T18:57:52.882Z" agent="5.0 (X11; Linux x86_64) AppleWebKit/537.36 (KHTML, like Gecko) Chrome/111.0.0.0 Safari/537.36" etag="kBNN3fU3VuF83z435eUH" version="20.5.3" type="embed"><diagram id="23iRSUPoRavnBvh4doch" name="Page-1"><mxGraphModel dx="1136" dy="1108" grid="1" gridSize="10" guides="1" tooltips="1" connect="1" arrows="1" fold="1" page="1" pageScale="1" pageWidth="827" pageHeight="1169" math="0" shadow="0"><root><mxCell id="0"/><mxCell id="1" parent="0"/><mxCell id="8" value="DB" style="shape=cylinder3;whiteSpace=wrap;html=1;boundedLbl=1;backgroundOutline=1;size=15;" vertex="1" parent="1"><mxGeometry x="480" y="380" width="60" height="80" as="geometry"/></mxCell><mxCell id="17" style="edgeStyle=orthogonalEdgeStyle;rounded=0;orthogonalLoop=1;jettySize=auto;html=1;" edge="1" parent="1" source="9" target="11"><mxGeometry relative="1" as="geometry"/></mxCell><mxCell id="9" value="Actor" style="shape=umlActor;verticalLabelPosition=bottom;verticalAlign=top;html=1;outlineConnect=0;" vertex="1" parent="1"><mxGeometry x="150" y="125" width="30" height="60" as="geometry"/></mxCell><mxCell id="19" style="edgeStyle=orthogonalEdgeStyle;rounded=0;orthogonalLoop=1;jettySize=auto;html=1;" edge="1" parent="1" source="10" target="8"><mxGeometry relative="1" as="geometry"><Array as="points"><mxPoint x="300" y="215"/><mxPoint x="300" y="420"/></Array></mxGeometry></mxCell><mxCell id="10" value="Recipe" style="shape=module;align=left;spacingLeft=20;align=center;verticalAlign=top;" vertex="1" parent="1"><mxGeometry x="340" y="190" width="100" height="50" as="geometry"/></mxCell><mxCell id="15" style="edgeStyle=orthogonalEdgeStyle;rounded=0;orthogonalLoop=1;jettySize=auto;html=1;entryX=1;entryY=0.5;entryDx=0;entryDy=0;" edge="1" parent="1" source="11" target="12"><mxGeometry relative="1" as="geometry"><Array as="points"><mxPoint x="490" y="155"/><mxPoint x="490" y="275"/></Array></mxGeometry></mxCell><mxCell id="16" style="edgeStyle=orthogonalEdgeStyle;rounded=0;orthogonalLoop=1;jettySize=auto;html=1;" edge="1" parent="1" source="11" target="10"><mxGeometry relative="1" as="geometry"><Array as="points"><mxPoint x="470" y="155"/><mxPoint x="470" y="215"/></Array></mxGeometry></mxCell><mxCell id="11" value="Shopping&#10;List" style="shape=module;align=left;spacingLeft=20;align=center;verticalAlign=top;" vertex="1" parent="1"><mxGeometry x="340" y="130" width="100" height="50" as="geometry"/></mxCell><mxCell id="18" style="edgeStyle=orthogonalEdgeStyle;rounded=0;orthogonalLoop=1;jettySize=auto;html=1;entryX=0.5;entryY=0;entryDx=0;entryDy=0;entryPerimeter=0;" edge="1" parent="1" source="12" target="8"><mxGeometry relative="1" as="geometry"><Array as="points"><mxPoint x="410" y="350"/><mxPoint x="510" y="350"/></Array></mxGeometry></mxCell><mxCell id="12" value="Ingredients" style="shape=module;align=left;spacingLeft=20;align=center;verticalAlign=top;" vertex="1" parent="1"><mxGeometry x="340" y="250" width="100" height="50" as="geometry"/></mxCell></root></mxGraphModel></diagram></mxfile>